<svg version="1.0" xmlns="http://www.w3.org/2000/svg" width="985.000000pt" height="980.000000pt" viewBox="0 0 985.000000 980.000000"
 preserveAspectRatio="xMidYMid meet">

			<g transform="translate(0.000000,980.000000) scale(0.100000,-0.100000)"
			fill="#000000" stroke="none">
			<path d="M6274 9438 c-3 -5 -4 -10 -3 -12 2 -1 21 -10 41 -21 20 -10 35 -22
			32 -26 -2 -4 0 -10 6 -14 18 -11 11 -34 -12 -37 -35 -5 -124 27 -119 43 2 8 6
			22 8 32 3 9 0 17 -7 17 -6 0 -14 -8 -17 -19 -4 -15 -17 -20 -66 -23 -34 -3
			-96 -1 -138 3 -58 7 -88 5 -125 -6 -27 -8 -61 -15 -75 -15 -27 0 -244 -73
			-263 -89 -21 -17 -150 -81 -163 -81 -7 0 -22 5 -32 12 -15 9 -24 8 -46 -6 -20
			-13 -24 -21 -16 -29 24 -24 12 -37 -28 -31 -34 5 -42 3 -63 -21 -12 -15 -36
			-34 -53 -42 -53 -25 -123 -67 -161 -98 -25 -20 -46 -28 -66 -27 -19 2 -42 -6
			-62 -21 -17 -13 -39 -26 -48 -30 -10 -3 -18 -15 -18 -24 0 -17 -60 -83 -75
			-83 -3 0 -27 -17 -53 -39 -26 -21 -55 -41 -64 -44 -10 -4 -18 -12 -18 -19 0
			-7 -16 -24 -35 -37 -19 -13 -32 -27 -29 -32 2 -4 -5 -18 -18 -31 -12 -12 -31
			-39 -43 -60 -71 -134 -95 -172 -154 -248 -36 -47 -97 -120 -136 -163 -38 -43
			-77 -91 -85 -106 -8 -16 -26 -48 -40 -71 -14 -24 -31 -52 -37 -64 -7 -11 -13
			-29 -13 -39 0 -10 -12 -44 -26 -75 -161 -349 -159 -343 -168 -477 -4 -43 -18
			-118 -33 -165 -14 -47 -26 -94 -25 -105 1 -11 -6 -31 -16 -45 -26 -39 -43
			-107 -49 -200 -8 -124 -6 -171 10 -189 10 -11 17 -55 21 -131 3 -63 13 -189
			22 -280 13 -146 19 -174 48 -240 18 -41 38 -95 44 -120 17 -69 51 -140 67
			-140 26 0 16 -18 -17 -35 -18 -9 -43 -24 -56 -35 -30 -25 -68 -110 -84 -189
			-12 -61 -11 -66 16 -145 34 -97 59 -155 134 -305 56 -113 57 -116 59 -206 1
			-94 14 -140 53 -195 12 -16 31 -60 44 -98 25 -74 54 -134 67 -143 5 -3 31 -48
			57 -100 58 -115 92 -143 165 -136 l47 4 12 -41 c21 -75 109 -298 145 -370 19
			-39 57 -108 84 -153 27 -45 57 -99 65 -120 25 -58 43 -189 54 -383 10 -173 21
			-267 40 -345 16 -67 13 -85 -14 -85 -17 0 -37 -16 -67 -52 -57 -70 -85 -97
			-204 -192 -109 -87 -221 -162 -329 -221 -38 -20 -132 -79 -207 -131 -135 -91
			-309 -185 -479 -259 -121 -52 -222 -95 -245 -105 -11 -5 -132 -62 -270 -128
			-335 -160 -475 -227 -549 -258 -97 -43 -306 -135 -364 -161 -30 -13 -111 -57
			-180 -97 -70 -41 -181 -101 -247 -134 -66 -33 -169 -90 -230 -127 -75 -45
			-126 -69 -160 -75 -123 -20 -226 -96 -296 -215 -59 -100 -89 -200 -123 -402
			l-5 -33 2053 0 2053 0 -5 120 c-4 105 -3 120 11 120 29 0 113 -95 148 -169 33
			-68 35 -71 69 -71 l36 0 -4 72 c-4 103 -31 311 -41 321 -4 4 -16 -4 -26 -19
			-21 -32 -64 -74 -76 -74 -16 0 -32 41 -20 53 6 6 11 19 11 29 0 11 7 18 20 18
			11 0 20 4 20 8 0 5 16 29 36 54 19 26 43 61 53 80 9 18 22 42 28 53 5 11 18
			35 28 53 24 47 23 212 -2 260 -10 17 -21 32 -25 32 -5 0 -8 7 -8 15 0 8 -7 34
			-15 57 -18 55 -25 151 -15 208 5 25 11 83 15 130 8 112 50 230 82 230 12 0 25
			5 29 11 4 8 9 7 15 -2 6 -10 10 -9 15 6 5 11 3 20 -4 23 -18 6 -14 19 8 25 27
			7 26 43 -1 58 -15 8 -18 13 -10 18 9 6 9 23 0 72 -6 35 -14 88 -16 117 -4 45
			-3 51 12 46 11 -5 18 0 22 15 3 11 7 21 9 21 9 0 83 -42 100 -58 19 -16 39
			-29 89 -56 11 -6 22 -14 25 -17 3 -3 64 -45 135 -94 72 -49 166 -114 210 -145
			187 -133 306 -207 358 -224 61 -19 70 -46 15 -46 -80 0 -207 -49 -358 -138
			-133 -78 -176 -110 -336 -250 -141 -122 -218 -208 -262 -290 -31 -57 -24 -71
			17 -36 32 26 35 27 80 15 47 -12 57 -20 149 -113 55 -55 76 -86 137 -201 20
			-37 51 -89 69 -115 18 -26 43 -72 54 -102 11 -30 26 -70 33 -88 l13 -32 554 0
			c349 0 551 4 547 10 -3 5 -12 7 -20 3 -8 -3 -15 0 -15 6 0 6 5 11 10 11 6 0
			10 11 10 25 0 31 -25 33 -35 2 -6 -19 -8 -20 -12 -4 -3 10 3 29 12 44 12 18
			14 28 6 36 -6 6 -11 17 -11 24 0 17 -48 118 -79 168 -45 71 -61 154 -62 320 0
			83 4 170 10 195 6 25 11 62 11 82 0 40 25 64 95 94 20 8 40 25 45 39 7 18 17
			25 35 25 26 0 30 7 17 26 -4 6 -74 45 -157 87 -148 75 -342 148 -400 151 -43
			2 -38 25 13 59 24 16 41 31 39 34 -6 5 -49 -18 -58 -31 -4 -4 -17 -5 -30 0
			-13 4 -28 7 -33 5 -5 -1 -5 4 1 11 12 16 11 58 -2 78 -6 8 -14 22 -20 31 -35
			55 -73 98 -91 103 -16 4 -23 16 -28 45 -4 27 -12 40 -26 44 -11 3 -25 16 -30
			29 -6 12 -17 34 -25 48 -8 14 -15 40 -15 58 0 18 -5 42 -10 53 -14 26 -29 109
			-20 109 4 0 13 14 20 30 7 17 18 34 24 38 6 4 18 20 26 37 9 16 25 31 35 33
			11 2 25 9 30 15 6 7 23 20 38 30 15 10 26 25 25 34 -2 10 8 20 27 26 41 13 58
			28 47 39 -6 6 2 31 19 64 16 29 29 60 29 67 0 17 40 52 60 52 9 0 15 9 15 24
			0 18 8 27 30 34 17 5 41 20 55 32 16 15 36 22 58 21 19 0 37 4 42 9 13 17 28
			77 35 137 6 51 5 56 -12 52 -19 -5 -45 38 -47 80 -1 14 -9 22 -25 24 -14 2
			-43 19 -65 37 -29 23 -59 36 -98 44 -80 14 -142 50 -146 84 -2 16 -10 27 -18
			27 -20 0 -44 60 -44 107 0 48 -22 81 -58 85 -23 3 -28 8 -32 43 -5 39 -6 40
			-45 42 -22 1 -49 3 -60 3 -11 1 -29 0 -40 -3 -11 -2 -25 -1 -30 4 -6 4 -24 9
			-40 11 -27 3 -30 0 -36 -32 -4 -19 -7 -27 -8 -16 -1 15 -4 16 -15 7 -12 -10
			-17 -6 -27 23 -7 20 -17 32 -25 29 -14 -5 -20 11 -29 85 -6 42 -4 52 8 52 8 0
			18 -8 22 -17 6 -16 8 -16 23 3 9 12 25 24 35 27 10 4 17 17 17 32 0 19 5 25
			21 25 27 0 59 18 59 33 1 20 47 70 59 63 6 -4 21 0 34 9 18 12 42 14 103 11
			104 -7 123 -2 121 32 -2 23 1 27 23 23 14 -1 37 -12 51 -22 l27 -19 4 25 c3
			14 0 29 -6 34 -14 11 -83 30 -89 24 -3 -2 -29 4 -58 13 -39 13 -54 14 -57 6
			-5 -17 -27 -15 -72 8 -22 11 -52 21 -67 22 -51 3 -69 38 -20 38 26 0 107 32
			107 43 0 4 -9 7 -19 7 -11 0 -29 12 -41 27 -20 26 -20 28 -4 40 10 7 43 13 73
			13 31 0 144 3 251 6 194 6 196 6 315 -25 66 -17 135 -31 153 -31 18 0 73 -9
			123 -20 51 -12 94 -18 97 -16 11 12 -10 37 -47 56 -26 13 -66 22 -113 24 -40
			2 -86 9 -103 16 -61 24 -244 45 -452 53 -49 2 -67 7 -87 26 -13 13 -29 20 -35
			17 -5 -4 -12 -2 -15 3 -4 5 -19 9 -34 9 -30 -1 -72 17 -72 31 0 12 -115 11
			-162 0 -20 -5 -68 -11 -106 -14 -64 -4 -71 -2 -92 20 -13 14 -29 25 -36 25 -7
			0 -18 9 -24 21 -8 14 -15 17 -23 11 -7 -6 -24 -8 -39 -5 -24 5 -28 11 -30 42
			-1 20 -1 48 0 64 2 23 -2 27 -22 27 -35 0 -44 -21 -18 -38 34 -22 27 -27 -38
			-25 l-59 1 3 -48 c3 -36 0 -47 -9 -44 -7 3 -16 0 -20 -6 -5 -7 -15 0 -28 22
			-17 27 -22 30 -25 14 -2 -10 2 -23 10 -28 9 -7 8 -8 -6 -4 -15 5 -18 2 -14
			-19 3 -14 1 -25 -3 -25 -5 0 -9 11 -9 24 0 27 -21 47 -28 27 -3 -8 -9 -5 -19
			9 -11 16 -18 18 -23 10 -6 -9 -12 -9 -28 1 -17 11 -24 11 -34 1 -19 -19 -28
			-15 -40 18 -5 17 -23 37 -39 46 -33 17 -38 43 -9 51 24 6 25 16 6 32 -10 8
			-16 9 -21 1 -11 -17 -37 -11 -42 10 -3 11 -10 20 -15 20 -5 0 -7 4 -4 9 3 5
			-2 23 -10 41 -9 17 -18 64 -21 103 -4 70 -4 73 24 93 15 11 48 24 73 28 24 4
			50 12 57 18 7 6 43 12 80 14 38 2 82 6 98 9 41 7 85 -39 87 -89 1 -20 5 -36
			10 -36 5 0 4 -8 -1 -19 -8 -14 -5 -23 14 -41 13 -13 22 -27 19 -31 -3 -5 4 -9
			14 -9 24 0 38 -16 48 -55 8 -31 33 -57 47 -48 4 2 5 8 2 13 -11 18 40 -5 61
			-27 27 -29 27 -29 61 3 21 19 34 24 53 19 28 -8 101 -15 143 -15 16 0 30 -6
			33 -15 6 -14 11 -13 41 5 19 11 40 20 47 20 8 0 19 6 25 14 7 8 30 17 52 21
			31 5 45 15 62 41 12 18 28 36 36 39 21 8 101 -6 101 -17 0 -6 15 4 33 22 17
			17 42 36 55 41 40 15 26 32 -21 26 -47 -7 -67 4 -67 34 0 24 -18 33 -35 19
			-11 -9 -22 -4 -53 24 -59 54 -92 107 -109 180 -14 58 -15 76 -4 132 12 60 12
			69 -10 127 -12 34 -27 65 -33 69 -6 4 -5 12 3 22 8 9 14 49 16 93 5 138 35
			246 78 281 32 27 94 41 135 30 55 -14 71 -35 127 -163 26 -60 76 -166 110
			-235 34 -69 68 -142 74 -162 13 -38 21 -46 121 -118 69 -50 118 -112 126 -159
			8 -45 30 -71 60 -71 13 0 26 -5 30 -11 4 -7 11 -2 18 13 17 33 48 45 156 58
			156 18 329 67 438 125 136 71 226 204 322 474 45 127 78 190 116 220 22 17 35
			19 97 14 82 -6 92 -12 113 -62 14 -32 18 -51 23 -114 0 -10 6 -15 11 -12 6 4
			7 23 4 45 -5 31 -3 41 13 51 18 11 19 16 8 61 -6 28 -18 54 -28 59 -25 14 -21
			26 10 32 36 7 45 0 33 -24 -15 -27 14 -37 49 -16 14 8 30 15 34 15 4 0 34 8
			65 18 55 18 59 21 86 79 35 72 53 95 77 95 10 0 18 8 18 18 2 44 15 98 27 113
			8 9 18 50 23 92 6 53 15 84 30 103 12 15 19 34 17 43 -6 18 -19 266 -16 296 1
			11 1 46 1 78 -1 44 2 57 14 57 19 0 19 4 0 40 -19 37 -2 74 29 64 17 -6 18 -2
			12 31 -6 28 -4 36 6 32 20 -7 48 12 48 32 0 10 -11 30 -24 44 -14 15 -28 37
			-31 49 -4 13 -13 30 -20 38 -7 8 -15 27 -17 43 -4 21 -1 27 12 27 26 0 31 11
			17 34 -8 12 -17 48 -20 80 -4 36 -12 63 -20 68 -8 4 -22 19 -31 34 -17 25 -17
			25 4 14 12 -7 21 -8 18 -3 -13 29 -61 122 -72 143 -34 60 -53 119 -66 205 -8
			59 -17 83 -59 153 -39 66 -39 76 -2 32 36 -43 51 -33 22 15 -11 20 -21 51 -21
			69 0 22 -8 40 -25 56 -30 28 -79 109 -71 117 3 3 12 0 21 -7 12 -10 15 -9 15
			6 0 11 -18 32 -40 48 -30 23 -40 37 -40 58 0 16 -9 46 -20 68 -11 22 -20 44
			-20 49 0 6 -10 21 -22 35 -36 38 -48 54 -48 64 0 5 -12 19 -26 33 -14 13 -30
			32 -35 42 -9 15 -7 17 16 11 23 -6 26 -4 23 12 -2 12 -13 20 -29 22 -28 3 -61
			53 -40 60 14 5 15 32 1 32 -5 0 -12 11 -16 25 -3 14 -11 25 -18 25 -6 0 -23 6
			-37 14 -14 7 -37 16 -52 20 -15 3 -27 13 -27 22 0 8 5 12 11 8 6 -3 22 -1 35
			6 17 9 21 17 15 29 -5 9 -19 45 -31 81 -12 36 -31 74 -41 86 -11 11 -19 26
			-19 32 0 14 -97 92 -115 92 -7 0 -18 7 -25 14 -6 8 -35 22 -63 32 -29 9 -56
			20 -62 24 -5 4 -39 17 -75 29 -36 12 -76 30 -90 40 -14 10 -38 21 -54 25 -16
			4 -41 16 -55 27 -15 12 -34 18 -47 15 -12 -3 -42 5 -70 19 -57 29 -70 30 -143
			10 -38 -10 -60 -11 -73 -4 -13 7 -35 7 -70 -1 -58 -12 -68 -6 -68 43 0 20 5
			27 19 27 11 0 21 -6 24 -12 3 -10 7 -10 17 -1 37 35 -30 57 -86 29 -15 -8 -40
			-12 -55 -9 -21 4 -28 1 -34 -16 -3 -12 -11 -21 -16 -21 -12 0 -11 7 1 30 7 13
			7 21 -1 25 -13 8 -69 -14 -69 -27 0 -5 4 -7 9 -3 13 8 22 -10 15 -29 -8 -22
			-25 -20 -31 4 -7 28 -35 25 -86 -10 -25 -16 -52 -30 -60 -30 -8 0 -32 14 -53
			31 -61 49 -112 71 -144 64 -26 -6 -31 -3 -45 30 -8 21 -12 41 -9 46 7 12 117
			11 150 -1 18 -7 31 -7 37 -1 9 9 5 11 -98 26 -74 12 -165 13 -171 3z m682
			-225 c-10 -10 -19 5 -10 18 6 11 8 11 12 0 2 -7 1 -15 -2 -18z m848 -252 c50
			-28 70 -51 44 -51 -8 0 -30 12 -49 26 -19 14 -49 32 -66 39 -18 8 -33 17 -33
			21 0 11 54 -7 104 -35z m-1294 -1316 c0 -16 -6 -25 -15 -25 -18 0 -18 5 -5 31
			14 26 20 24 20 -6z m100 6 c-5 -11 -10 -29 -10 -40 0 -12 -4 -21 -10 -21 -5 0
			-10 -6 -10 -12 -1 -15 -35 -58 -47 -58 -4 0 -19 -9 -33 -20 -14 -11 -30 -20
			-37 -20 -13 0 -160 -96 -168 -111 -4 -5 -13 -9 -22 -9 -9 0 -32 -12 -51 -26
			-19 -15 -48 -29 -65 -30 -17 -2 -38 -10 -46 -18 -9 -8 -36 -22 -61 -32 -25 -9
			-56 -25 -70 -34 -45 -29 -80 -40 -131 -40 -36 0 -49 4 -47 13 3 6 13 14 23 16
			10 1 32 12 49 22 l31 19 -35 -6 c-19 -4 -39 -11 -44 -15 -6 -5 -15 -9 -22 -9
			-14 0 -27 41 -16 52 4 3 44 3 89 -1 78 -6 81 -6 66 11 -9 10 -22 18 -30 18 -8
			0 -21 6 -29 14 -12 12 -9 14 21 12 29 -3 39 2 56 25 11 15 28 31 39 34 11 4
			20 12 20 18 0 7 11 25 25 40 14 15 23 27 19 27 -4 0 1 9 11 20 10 11 26 20 35
			20 9 0 30 11 46 25 19 17 41 25 65 25 42 0 100 22 119 45 11 13 15 13 21 3 6
			-10 9 -8 9 6 0 12 5 16 15 13 8 -4 27 0 42 8 27 14 28 14 31 -9 2 -16 8 -23
			17 -20 22 9 28 -16 9 -37 -9 -10 -13 -19 -8 -19 5 0 18 14 29 30 11 16 23 30
			27 30 4 0 5 6 2 13 -3 8 1 19 8 24 11 10 25 14 71 22 4 0 3 -8 -3 -18z m211
			-19 c18 -7 74 -52 145 -116 38 -33 44 -36 44 -18 0 11 -7 22 -15 26 -19 7 -20
			26 0 26 17 0 37 -33 34 -58 -3 -33 1 -36 16 -15 14 20 17 21 46 6 25 -12 30
			-20 25 -39 -5 -17 -2 -24 7 -24 16 0 61 -62 72 -97 8 -28 29 -31 22 -3 -8 30
			9 24 50 -15 20 -19 42 -35 48 -35 7 0 18 -7 25 -15 7 -8 17 -12 23 -8 6 4 8 0
			4 -10 -4 -11 -1 -17 7 -17 12 0 55 -44 175 -180 27 -30 76 -85 110 -121 34
			-36 67 -73 74 -84 8 -10 19 -15 25 -11 12 7 52 -39 52 -60 0 -8 6 -14 14 -14
			14 0 106 -97 106 -112 0 -5 9 -17 20 -28 11 -11 20 -28 20 -39 0 -10 9 -25 19
			-32 12 -8 30 -50 46 -104 15 -49 38 -113 51 -141 21 -44 52 -180 68 -296 l5
			-37 -41 1 c-23 0 -55 4 -72 9 -47 14 -333 47 -511 59 -202 14 -498 17 -592 7
			-67 -7 -73 -7 -74 10 -1 17 -2 17 -6 0 -3 -11 -11 -16 -19 -13 -8 3 -14 1 -14
			-3 0 -14 -133 -41 -147 -29 -7 5 -21 7 -33 3 -12 -4 -27 -1 -35 5 -12 10 -15
			10 -15 -1 0 -8 -3 -25 -7 -38 -5 -20 -3 -22 16 -16 33 10 25 -1 -30 -45 l-51
			-40 -95 0 c-52 0 -102 4 -112 10 -10 5 -55 12 -101 16 -60 5 -83 11 -88 23
			-11 30 -98 107 -145 130 -26 13 -74 48 -105 78 -31 30 -72 61 -91 70 -19 8
			-41 24 -50 35 -11 13 -33 22 -64 25 -26 3 -45 8 -42 11 10 11 -16 30 -35 25
			-11 -3 -27 0 -35 7 -8 6 -23 9 -35 5 -14 -4 -20 -2 -20 8 0 17 -46 29 -105 28
			-22 0 -49 4 -60 9 -43 20 -81 33 -92 31 -7 -1 -19 14 -27 33 -10 25 -22 36
			-45 41 -25 5 -32 13 -37 40 -6 36 2 75 17 75 5 0 9 15 9 33 0 21 8 41 20 52
			11 10 22 26 26 37 3 10 23 26 45 34 43 18 51 34 17 34 -19 0 -20 2 -8 11 11 8
			12 12 3 16 -20 7 -15 23 7 23 10 0 24 -8 30 -17 9 -17 11 -17 22 2 7 11 12 29
			13 40 0 11 6 20 14 20 14 0 28 34 35 83 5 34 19 44 66 46 31 2 47 9 60 25 9
			13 23 22 31 19 8 -3 20 1 27 9 16 15 52 18 52 3 0 -5 5 -10 10 -10 6 0 10 9
			10 20 0 13 7 20 19 20 10 0 39 11 65 25 50 27 76 32 76 14 0 -5 5 -7 10 -4 19
			12 10 24 -25 31 -50 9 -43 24 13 25 26 0 59 2 74 3 18 1 28 -4 31 -16 3 -10
			13 -18 22 -18 11 0 15 6 10 19 -4 12 0 21 12 25 10 4 19 2 21 -3 5 -16 22 -13
			22 3 0 7 22 23 49 35 57 24 75 26 65 9 -3 -7 5 1 20 17 14 17 25 27 26 23 0
			-3 14 7 32 24 18 17 34 25 36 19 5 -14 32 -15 32 -1 0 6 5 10 11 10 6 0 31 14
			56 30 24 17 47 30 51 31 4 0 36 25 72 54 36 30 94 76 130 102 35 27 78 63 95
			80 26 29 36 33 80 32 28 0 57 -3 66 -7z m-1066 -451 c-6 -5 -23 -13 -40 -16
			-29 -7 -29 -7 -10 8 21 17 66 24 50 8z m-275 -165 c0 -3 -4 -8 -10 -11 -5 -3
			-10 -1 -10 4 0 6 5 11 10 11 6 0 10 -2 10 -4z m1187 -1042 c-3 -3 -12 -4 -19
			-1 -8 3 -5 6 6 6 11 1 17 -2 13 -5z m-1047 -44 c72 -18 169 -59 142 -60 -7 0
			-23 -8 -36 -17 -24 -19 -26 -16 37 -80 l22 -23 -21 0 c-12 0 -27 6 -33 14 -40
			48 -210 80 -376 69 -88 -5 -106 -3 -133 12 -27 16 -29 20 -15 30 13 10 9 14
			-27 29 -27 10 -39 21 -34 26 33 33 344 33 474 0z m1853 -4 c218 -42 306 -130
			327 -325 20 -193 -61 -459 -177 -577 -78 -80 -187 -127 -323 -139 -335 -30
			-457 10 -585 189 -62 88 -94 157 -120 260 -48 189 -40 344 21 424 32 41 41 37
			17 -7 -13 -22 -15 -33 -7 -39 7 -4 13 -16 15 -26 6 -29 35 -43 59 -28 28 17
			33 15 26 -13 -5 -19 -2 -25 10 -25 9 0 33 -10 53 -22 36 -23 86 -28 305 -31
			64 -1 70 0 96 30 15 17 32 39 38 49 10 18 11 18 31 0 12 -11 21 -27 21 -37 0
			-15 7 -16 58 -12 47 4 68 1 121 -21 55 -24 161 -46 161 -35 0 2 -10 25 -23 50
			-37 77 -84 122 -189 182 -82 48 -216 74 -398 78 -64 2 -111 7 -120 15 -8 6
			-24 14 -35 16 -36 8 115 48 215 58 117 11 307 4 403 -14z m-753 -96 c-8 -5
			-19 -10 -25 -10 -5 0 -3 5 5 10 8 5 20 10 25 10 6 0 3 -5 -5 -10z m430 -110
			c8 -5 11 -10 5 -10 -5 0 -17 5 -25 10 -8 5 -10 10 -5 10 6 0 17 -5 25 -10z
			m-1559 -30 c10 -6 19 -16 19 -22 0 -19 -32 -48 -52 -48 -10 0 -18 -7 -18 -16
			0 -11 5 -14 18 -9 31 13 62 12 72 0 11 -13 46 -9 68 8 6 5 12 6 12 2 0 -4 7
			-1 16 6 14 11 18 10 30 -6 8 -10 14 -27 14 -37 0 -16 -3 -16 -20 -6 -15 10
			-22 10 -32 0 -6 -6 -20 -12 -30 -12 -10 0 -21 -7 -24 -15 -4 -8 -13 -15 -20
			-15 -21 0 -98 -40 -107 -56 -8 -13 -69 -30 -98 -26 -8 2 -23 -6 -33 -17 -17
			-19 -17 -20 3 -31 15 -7 27 -8 40 -1 17 10 72 21 111 23 8 1 18 6 22 11 4 6
			32 11 62 11 63 1 59 8 57 -99 -1 -36 6 -64 24 -99 25 -50 33 -110 15 -121 -5
			-3 -10 -17 -10 -29 0 -13 -7 -29 -15 -36 -8 -7 -15 -17 -15 -22 0 -16 -54 -59
			-105 -83 -131 -62 -463 -56 -611 10 -37 17 -131 109 -140 139 -4 11 -14 32
			-24 46 -22 32 -70 167 -69 194 1 18 2 18 8 -4 5 -14 23 -56 40 -94 25 -52 35
			-66 44 -57 9 9 6 17 -13 32 -24 20 -24 20 -2 14 19 -5 22 -2 22 19 0 14 3 25
			8 24 18 -6 92 36 90 51 -2 10 8 17 32 21 19 3 50 14 69 23 19 9 55 17 81 17
			34 0 52 5 65 20 10 11 26 20 37 20 33 0 19 30 -21 46 -43 17 -78 58 -60 70 27
			16 112 31 158 28 33 -3 54 1 63 10 19 19 80 27 74 9 -6 -14 6 -16 42 -7 14 4
			21 12 18 20 -6 15 43 103 57 104 5 0 17 -5 28 -10z m253 -51 c-8 -14 -42 3
			-53 27 -16 37 -14 37 23 7 19 -15 33 -30 30 -34z m562 26 c24 -15 32 -49 15
			-60 -12 -7 -123 70 -113 80 10 10 70 -2 98 -20z m1729 -5 c3 -5 -3 -10 -14
			-10 -12 0 -21 5 -21 10 0 6 6 10 14 10 8 0 18 -4 21 -10z m-2285 -44 c0 -3 -4
			-8 -10 -11 -5 -3 -10 -1 -10 4 0 6 5 11 10 11 6 0 10 -2 10 -4z m-986 -691
			c-13 -32 -68 0 -58 33 5 13 4 14 -4 3 -5 -7 -15 -10 -22 -6 -8 5 -9 10 -1 18
			15 15 14 27 -4 27 -15 0 -21 21 -9 32 10 11 104 -92 98 -107z m1111 34 c58
			-51 59 -58 14 -126 -51 -79 -88 -98 -156 -82 -68 16 -90 33 -104 79 -11 37
			-10 42 12 66 47 52 105 80 191 93 4 1 23 -13 43 -30z m-1067 -46 c9 -10 31
			-24 47 -32 19 -8 25 -15 17 -18 -12 -5 -30 1 -82 27 -18 9 -26 40 -11 40 6 0
			19 -8 29 -17z m612 -659 c0 -14 -12 -19 -23 -8 -9 9 4 35 14 28 5 -3 9 -12 9
			-20z m-113 -106 c-3 -8 -6 -5 -6 6 -1 11 2 17 5 13 3 -3 4 -12 1 -19z m-97
			-338 c11 -11 20 -33 20 -48 0 -15 4 -32 10 -38 10 -10 2 -54 -10 -54 -5 0 -10
			10 -12 23 -3 25 -46 37 -58 17 -5 -7 -9 -2 -12 13 -4 22 -2 25 21 24 24 -2 26
			1 23 33 -2 19 -9 38 -15 42 -9 6 -9 8 1 8 6 0 21 -9 32 -20z m709 -532 c3 1 6
			-4 6 -10 0 -7 -5 -12 -12 -11 -6 2 -15 -6 -18 -17 -14 -44 -37 -6 -28 44 5 26
			6 26 25 9 11 -10 23 -17 27 -15z m-99 -59 c0 -20 -15 -26 -25 -9 -9 15 3 43
			15 35 5 -3 10 -15 10 -26z m210 15 c0 -3 -6 -12 -14 -19 -17 -18 -29 -8 -13
			11 12 14 27 18 27 8z m-248 -68 c24 -23 43 -33 56 -29 14 3 23 -4 36 -31 12
			-26 23 -36 40 -36 29 0 48 -45 39 -90 -5 -29 -32 -43 -34 -17 0 10 -2 10 -6 0
			-13 -35 -133 16 -171 72 -28 40 -39 109 -22 141 8 13 16 24 20 24 3 0 22 -15
			42 -34z m-112 -29 c0 -18 -2 -19 -10 -7 -13 20 -13 43 0 35 6 -3 10 -16 10
			-28z m437 -1694 c4 -10 11 -21 17 -25 7 -5 6 -8 -3 -8 -13 0 -40 28 -41 43 0
			14 21 7 27 -10z m483 -317 c0 -3 -4 -8 -10 -11 -5 -3 -10 -1 -10 4 0 6 5 11
			10 11 6 0 10 -2 10 -4z m30 -36 c0 -5 -5 -10 -11 -10 -5 0 -7 5 -4 10 3 6 8
			10 11 10 2 0 4 -4 4 -10z m-40 -10 c0 -5 -5 -10 -11 -10 -5 0 -7 5 -4 10 3 6
			8 10 11 10 2 0 4 -4 4 -10z m-1710 -520 c0 -10 5 -22 10 -25 13 -8 13 -45 1
			-45 -5 0 -12 15 -16 33 -4 17 -9 40 -12 51 -3 12 -1 16 6 12 6 -4 11 -16 11
			-26z m1155 -185 c-3 -14 -7 -36 -10 -50 -5 -24 -25 -36 -25 -15 0 6 5 10 10
			10 6 0 10 18 10 40 0 22 5 40 10 40 6 0 8 -11 5 -25z m520 5 c3 -5 -1 -10 -10
			-10 -9 0 -13 5 -10 10 3 6 8 10 10 10 2 0 7 -4 10 -10z m-32 -35 c-3 -9 -8
			-14 -10 -11 -3 3 -2 9 2 15 9 16 15 13 8 -4z m64 -7 c-3 -8 -6 -5 -6 6 -1 11
			2 17 5 13 3 -3 4 -12 1 -19z m-13 -13 c3 -9 0 -15 -9 -15 -9 0 -12 6 -9 15 4
			8 7 15 9 15 2 0 5 -7 9 -15z m41 -45 c3 -5 -1 -10 -9 -10 -9 0 -16 5 -16 10 0
			6 4 10 9 10 6 0 13 -4 16 -10z m31 -47 c-10 -10 -19 5 -10 18 6 11 8 11 12 0
			2 -7 1 -15 -2 -18z m-56 7 c0 -5 -4 -10 -10 -10 -5 0 -10 5 -10 10 0 6 5 10
			10 10 6 0 10 -4 10 -10z m50 -35 c-12 -15 -30 -12 -30 6 0 5 10 9 21 9 18 0
			19 -2 9 -15z m60 5 c0 -5 -7 -10 -16 -10 -8 0 -12 5 -9 10 3 6 10 10 16 10 5
			0 9 -4 9 -10z m-30 -30 c0 -5 -8 -10 -17 -10 -15 0 -16 2 -3 10 19 12 20 12
			20 0z m66 -17 c-7 -7 -26 7 -26 19 0 6 6 6 15 -2 9 -7 13 -15 11 -17z m-131 7
			c-3 -5 -10 -10 -16 -10 -5 0 -9 5 -9 10 0 6 7 10 16 10 8 0 12 -4 9 -10z m90
			0 c3 -5 1 -10 -4 -10 -6 0 -11 5 -11 10 0 6 2 10 4 10 3 0 8 -4 11 -10z m48
			-46 c29 -24 35 -37 13 -28 -24 9 -28 -14 -6 -36 23 -23 26 -40 6 -40 -9 0 -12
			7 -9 21 5 16 1 20 -13 19 -33 -4 -35 -1 -18 25 23 35 11 45 -54 45 -36 0 -52
			4 -44 9 25 16 96 7 125 -15z m27 10 c0 -8 -4 -12 -10 -9 -5 3 -10 10 -10 16 0
			5 5 9 10 9 6 0 10 -7 10 -16z m-80 -28 c0 -3 -4 -8 -10 -11 -5 -3 -10 -1 -10
			4 0 6 5 11 10 11 6 0 10 -2 10 -4z m30 -82 c0 -2 -9 -4 -21 -4 -11 0 -18 4
			-14 10 5 8 35 3 35 -6z"/>
			<path d="M6427 7522 c-10 -10 -17 -22 -17 -26 0 -9 49 27 50 37 0 13 -17 7
			-33 -11z"/>
			<path d="M6340 7460 c-23 -18 -24 -20 -4 -20 20 0 44 17 44 32 0 13 -13 9 -40
			-12z"/>
			<path d="M5997 7130 c-9 -11 -14 -20 -11 -20 13 0 44 21 44 30 0 16 -14 11
			-33 -10z"/>
			<path d="M5770 7080 c-13 -8 -12 -10 3 -10 9 0 17 5 17 10 0 12 -1 12 -20 0z"/>
			<path d="M6734 6153 c-8 -8 -12 -19 -9 -24 4 -5 -2 -9 -11 -9 -14 0 -15 -3 -6
			-12 8 -8 15 -8 27 2 13 10 15 9 15 -8 0 -24 26 -37 34 -16 7 19 26 18 26 -1 0
			-19 16 -20 23 -1 4 10 52 16 52 6 0 -1 17 -3 38 -4 20 -2 37 0 37 4 0 5 6 8
			13 7 6 0 38 1 71 1 52 2 57 4 45 18 -10 12 -24 14 -58 10 -25 -3 -62 -7 -81
			-9 -19 -2 -22 -2 -7 0 16 2 27 10 24 16 -5 16 -77 19 -95 5 -10 -9 -15 -9 -22
			2 -13 20 -98 30 -116 13z"/>
			<path d="M6983 6163 c9 -2 23 -2 30 0 6 3 -1 5 -18 5 -16 0 -22 -2 -12 -5z"/>
			<path d="M6975 6070 c-3 -5 1 -10 10 -10 9 0 13 5 10 10 -3 6 -8 10 -10 10 -2
			0 -7 -4 -10 -10z"/>
			<path d="M6930 6060 c0 -5 5 -10 10 -10 6 0 10 5 10 10 0 6 -4 10 -10 10 -5 0
			-10 -4 -10 -10z"/>
			<path d="M5260 5435 c0 -8 5 -15 10 -15 6 0 10 7 10 15 0 8 -4 15 -10 15 -5 0
			-10 -7 -10 -15z"/>
			<path d="M8467 5450 c-22 -18 -24 -24 -16 -49 10 -27 70 -66 83 -54 8 8 8 87
			0 107 -8 22 -36 20 -67 -4z"/>
			<path d="M6490 4663 c-29 -21 -55 -43 -57 -49 -2 -7 18 -14 54 -17 32 -3 89
			-10 127 -16 58 -10 72 -9 84 3 13 12 13 20 2 46 -33 81 -122 95 -210 33z"/>
			<path d="M5445 4541 c-3 -5 -1 -12 5 -16 5 -3 10 1 10 9 0 18 -6 21 -15 7z"/>
			<path d="M5160 4341 c0 -12 5 -21 10 -21 6 0 10 6 10 14 0 8 -4 18 -10 21 -5
			3 -10 -3 -10 -14z"/>
			<path d="M5627 4323 c-4 -3 -7 -18 -6 -32 1 -26 1 -25 10 3 9 31 7 41 -4 29z"/>
			<path d="M5340 4255 c0 -8 5 -15 10 -15 6 0 10 7 10 15 0 8 -4 15 -10 15 -5 0
			-10 -7 -10 -15z"/>
			<path d="M7780 2840 c-22 -42 -12 -71 84 -243 108 -192 133 -292 116 -459 -20
			-190 -41 -611 -45 -893 -5 -306 -21 -693 -31 -743 -9 -43 -26 -46 -71 -12 -21
			16 -42 30 -46 30 -4 0 -5 -24 -2 -52 9 -81 14 -98 28 -98 7 0 26 -13 42 -30
			l28 -29 -1 -146 c-1 -80 -4 -150 -7 -155 -4 -7 349 -10 984 -10 l991 0 0 934
			0 933 -77 31 c-43 17 -121 50 -173 73 -260 114 -611 257 -710 289 -47 15 -123
			46 -170 68 -47 22 -121 52 -165 68 -44 16 -118 49 -165 74 -47 25 -103 54
			-124 64 -46 22 -279 179 -316 213 -39 37 -123 99 -142 106 -12 4 -21 0 -28
			-13z"/>
			<path d="M6726 2733 c-8 -8 -13 -9 -41 -12 -25 -2 -17 -31 8 -31 19 0 57 30
			57 45 0 8 -16 6 -24 -2z"/>
			<path d="M7016 970 c-36 -19 -69 -30 -89 -28 -18 1 -39 -2 -46 -6 -7 -5 -31
			-9 -52 -10 -21 -1 -41 -5 -45 -8 -11 -12 7 -28 32 -28 13 0 24 -4 24 -10 0 -5
			15 -17 33 -26 17 -9 43 -30 58 -47 24 -28 27 -29 75 -22 27 4 63 7 81 6 56 -4
			64 45 21 132 -10 20 -14 37 -9 37 5 0 13 -4 16 -10 9 -15 25 -12 25 5 0 12
			-47 45 -63 45 -2 0 -30 -14 -61 -30z"/>
			<path d="M7365 780 c3 -5 8 -10 11 -10 2 0 4 5 4 10 0 6 -5 10 -11 10 -5 0 -7
			-4 -4 -10z"/>
			<path d="M7302 728 c-15 -15 -16 -48 -1 -48 6 0 9 7 5 15 -3 8 -1 15 4 15 6 0
			10 -7 10 -15 0 -22 31 -18 37 5 3 11 10 20 15 20 5 0 6 5 2 11 -4 8 -9 7 -15
			-2 -6 -11 -11 -11 -21 -1 -15 15 -21 15 -36 0z"/>
			</g>
			</svg>